<svg width="38" height="15" viewBox="0 0 38 15" fill="none" xmlns="http://www.w3.org/2000/svg">
<path d="M0.965909 2.01705V0.454545H11.875V2.01705H7.30114V15H5.53977V2.01705H0.965909ZM14.5934 15V0.454545H23.3718V2.01705H16.3548V6.93182H22.9173V8.49432H16.3548V13.4375H23.4854V15H14.5934ZM31.0352 15H26.5465V0.454545H31.234C32.645 0.454545 33.8524 0.745738 34.8562 1.32812C35.86 1.90578 36.6294 2.73674 37.1644 3.82102C37.6995 4.90057 37.967 6.19318 37.967 7.69886C37.967 9.21401 37.6971 10.5185 37.1573 11.6122C36.6175 12.7012 35.8316 13.5393 34.7994 14.1264C33.7672 14.7088 32.5124 15 31.0352 15ZM28.3079 13.4375H30.9215C32.1242 13.4375 33.1209 13.2055 33.9116 12.7415C34.7023 12.2775 35.2918 11.617 35.68 10.7599C36.0683 9.90294 36.2624 8.88258 36.2624 7.69886C36.2624 6.52462 36.0707 5.51373 35.6871 4.66619C35.3036 3.81392 34.7307 3.16051 33.9684 2.70597C33.2061 2.24669 32.2567 2.01705 31.1204 2.01705H28.3079V13.4375Z" fill="#FF0000"/>
</svg>
